<svg width="98" height="100" viewBox="0 0 98 100" fill="none" xmlns="http://www.w3.org/2000/svg">
<path d="M47.3269 0C21.2309 0 0 22.43 0 50C0 77.57 21.2309 100 47.3269 100C73.423 100 94.6538 77.57 94.6538 50C94.6538 44.37 93.7262 38.971 92.0934 33.916L84.4305 42.0117C84.9274 44.5917 85.1885 47.265 85.1885 50C85.1885 72.055 68.2028 90 47.3269 90C26.451 90 9.46538 72.055 9.46538 50C9.46538 27.945 26.451 10 47.3269 10C55.0554 10 62.244 12.4695 68.245 16.6895L75.0206 9.53125C67.2211 3.56125 57.6679 0 47.3269 0ZM91.3077 6.46484L42.5942 57.9297L27.0096 41.4648L20.3173 48.5352L42.5942 72.0703L98 13.5352L91.3077 6.46484Z" fill="#75F94C"/>
</svg>
