<svg width="50" height="52" viewBox="0 0 50 52" fill="none" xmlns="http://www.w3.org/2000/svg">
<path d="M35.064 37.7667C34.5424 37.1503 34.2817 36.4505 34.2817 35.6671C34.2817 34.8857 34.5424 34.2342 35.064 33.7127L40.3272 28.4495H19.9147C19.1086 28.4495 18.4334 28.1764 17.889 27.6302C17.3428 27.0858 17.0697 26.4106 17.0697 25.6046C17.0697 24.7985 17.3428 24.1223 17.889 23.5761C18.4334 23.0318 19.1086 22.7596 19.9147 22.7596H40.3272L35.064 17.4964C34.495 16.9275 34.2105 16.2523 34.2105 15.4708C34.2105 14.6875 34.495 14.0114 35.064 13.4424C35.5856 12.8734 36.238 12.5889 37.0213 12.5889C37.8027 12.5889 38.4542 12.8497 38.9758 13.3713L49.2176 23.6131C49.5021 23.8976 49.7041 24.2058 49.8236 24.5377C49.9412 24.8696 50 25.2252 50 25.6046C50 25.9839 49.9412 26.3395 49.8236 26.6714C49.7041 27.0033 49.5021 27.3115 49.2176 27.596L38.9758 37.8378C38.3594 38.4542 37.6842 38.7264 36.9502 38.6543C36.2143 38.5842 35.5856 38.2883 35.064 37.7667ZM5.6899 51.2091C4.12518 51.2091 2.78521 50.6524 1.66999 49.5391C0.556662 48.4239 0 47.0839 0 45.5192V5.6899C0 4.12518 0.556662 2.78521 1.66999 1.66999C2.78521 0.556662 4.12518 0 5.6899 0H22.7596C23.5657 0 24.2418 0.272167 24.7881 0.816501C25.3324 1.36273 25.6046 2.03888 25.6046 2.84495C25.6046 3.65102 25.3324 4.32622 24.7881 4.87055C24.2418 5.41678 23.5657 5.6899 22.7596 5.6899H5.6899V45.5192H22.7596C23.5657 45.5192 24.2418 45.7923 24.7881 46.3386C25.3324 46.8829 25.6046 47.5581 25.6046 48.3642C25.6046 49.1702 25.3324 49.8454 24.7881 50.3898C24.2418 50.936 23.5657 51.2091 22.7596 51.2091H5.6899Z" fill="#8C4928"/>
</svg>
