<svg width="45" height="45" viewBox="0 0 45 45" fill="none" xmlns="http://www.w3.org/2000/svg">
<path d="M25 21.5L31.25 27.75C31.7083 28.2083 31.9375 28.7917 31.9375 29.5C31.9375 30.2083 31.7083 30.7917 31.25 31.25C30.7917 31.7083 30.2083 31.9375 29.5 31.9375C28.7917 31.9375 28.2083 31.7083 27.75 31.25L20.75 24.25C20.5 24 20.3125 23.7183 20.1875 23.405C20.0625 23.0933 20 22.7708 20 22.4375V12.5C20 11.7917 20.24 11.1975 20.72 10.7175C21.1983 10.2392 21.7917 10 22.5 10C23.2083 10 23.8025 10.2392 24.2825 10.7175C24.7608 11.1975 25 11.7917 25 12.5V21.5ZM22.5 45C17.4583 45 12.9375 43.51 8.9375 40.53C4.9375 37.5517 2.25 33.6667 0.875 28.875C0.666666 28.125 0.74 27.4167 1.095 26.75C1.44833 26.0833 2 25.6667 2.75 25.5C3.45833 25.3333 4.09417 25.4892 4.6575 25.9675C5.21917 26.4475 5.60417 27.0417 5.8125 27.75C6.89583 31.4167 8.99 34.375 12.095 36.625C15.1983 38.875 18.6667 40 22.5 40C27.375 40 31.51 38.3017 34.905 34.905C38.3017 31.51 40 27.375 40 22.5C40 17.625 38.3017 13.4892 34.905 10.0925C31.51 6.6975 27.375 5 22.5 5C19.625 5 16.9375 5.66667 14.4375 7C11.9375 8.33333 9.83333 10.1667 8.125 12.5H12.5C13.2083 12.5 13.8025 12.7392 14.2825 13.2175C14.7608 13.6975 15 14.2917 15 15C15 15.7083 14.7608 16.3017 14.2825 16.78C13.8025 17.26 13.2083 17.5 12.5 17.5H2.5C1.79167 17.5 1.19833 17.26 0.72 16.78C0.24 16.3017 0 15.7083 0 15V5C0 4.29167 0.24 3.6975 0.72 3.2175C1.19833 2.73917 1.79167 2.5 2.5 2.5C3.20833 2.5 3.8025 2.73917 4.2825 3.2175C4.76083 3.6975 5 4.29167 5 5V8.375C7.125 5.70833 9.71917 3.64583 12.7825 2.1875C15.8442 0.729167 19.0833 0 22.5 0C25.625 0 28.5525 0.593333 31.2825 1.78C34.0108 2.96833 36.3858 4.5725 38.4075 6.5925C40.4275 8.61417 42.0317 10.9892 43.22 13.7175C44.4067 16.4475 45 19.375 45 22.5C45 25.625 44.4067 28.5517 43.22 31.28C42.0317 34.01 40.4275 36.385 38.4075 38.405C36.3858 40.4267 34.0108 42.0317 31.2825 43.22C28.5525 44.4067 25.625 45 22.5 45Z" fill="#B67352"/>
</svg>
