<svg width="43" height="43" viewBox="0 0 43 43" fill="none" xmlns="http://www.w3.org/2000/svg">
<path d="M18.5938 24.4062L13.0625 21.9219C12.875 21.8281 12.7812 21.6875 12.7812 21.5C12.7812 21.3125 12.875 21.1719 13.0625 21.0781L18.5938 18.5469L21.0781 13.0625C21.1719 12.875 21.3125 12.7812 21.5 12.7812C21.6875 12.7812 21.8281 12.875 21.9219 13.0625L24.4531 18.5469L29.9375 21.0781C30.125 21.1719 30.2188 21.3125 30.2188 21.5C30.2188 21.6875 30.125 21.8281 29.9375 21.9219L24.4531 24.4062L21.9219 29.9375C21.8281 30.125 21.6875 30.2188 21.5 30.2188C21.3125 30.2188 21.1719 30.125 21.0781 29.9375L18.5938 24.4062ZM21.5 42.125C18 42.125 14.7812 41.3281 11.8438 39.7344C8.90625 38.1406 6.5 36.0156 4.625 33.3594V36.5C4.625 37.0312 4.44531 37.4766 4.08594 37.8359C3.72656 38.1953 3.28125 38.375 2.75 38.375C2.21875 38.375 1.77344 38.1953 1.41406 37.8359C1.05469 37.4766 0.875 37.0312 0.875 36.5V29C0.875 28.4688 1.05469 28.0234 1.41406 27.6641C1.77344 27.3047 2.21875 27.125 2.75 27.125H10.25C10.7812 27.125 11.2266 27.3047 11.5859 27.6641C11.9453 28.0234 12.125 28.4688 12.125 29C12.125 29.5312 11.9453 29.9766 11.5859 30.3359C11.2266 30.6953 10.7812 30.875 10.25 30.875H7.48438C8.98438 33.125 10.9609 34.9375 13.4141 36.3125C15.8672 37.6875 18.5625 38.375 21.5 38.375C25.9062 38.375 29.6953 36.9062 32.8672 33.9688C36.0391 31.0312 37.8438 27.4219 38.2812 23.1406C38.3438 22.6406 38.5625 22.2422 38.9375 21.9453C39.3125 21.6484 39.75 21.5 40.25 21.5C40.7812 21.5 41.2344 21.6641 41.6094 21.9922C41.9844 22.3203 42.1406 22.7188 42.0781 23.1875C41.8594 25.8438 41.1719 28.3203 40.0156 30.6172C38.8594 32.9141 37.3594 34.9141 35.5156 36.6172C33.6719 38.3203 31.5547 39.6641 29.1641 40.6484C26.7734 41.6328 24.2188 42.125 21.5 42.125ZM21.5 4.625C17.0938 4.625 13.3047 6.09375 10.1328 9.03125C6.96094 11.9688 5.15625 15.5781 4.71875 19.8594C4.65625 20.3594 4.4375 20.7578 4.0625 21.0547C3.6875 21.3516 3.25 21.5 2.75 21.5C2.21875 21.5 1.76562 21.3359 1.39062 21.0078C1.01562 20.6797 0.859375 20.2812 0.921875 19.8125C1.14062 17.1562 1.82812 14.6797 2.98438 12.3828C4.14062 10.0859 5.64062 8.08594 7.48438 6.38281C9.32812 4.67969 11.4453 3.33594 13.8359 2.35156C16.2266 1.36719 18.7812 0.875 21.5 0.875C25 0.875 28.2188 1.67188 31.1562 3.26562C34.0938 4.85938 36.5 6.98438 38.375 9.64062V6.5C38.375 5.96875 38.5547 5.52344 38.9141 5.16406C39.2734 4.80469 39.7188 4.625 40.25 4.625C40.7812 4.625 41.2266 4.80469 41.5859 5.16406C41.9453 5.52344 42.125 5.96875 42.125 6.5V14C42.125 14.5312 41.9453 14.9766 41.5859 15.3359C41.2266 15.6953 40.7812 15.875 40.25 15.875H32.75C32.2188 15.875 31.7734 15.6953 31.4141 15.3359C31.0547 14.9766 30.875 14.5312 30.875 14C30.875 13.4688 31.0547 13.0234 31.4141 12.6641C31.7734 12.3047 32.2188 12.125 32.75 12.125H35.5156C34.0156 9.875 32.0391 8.0625 29.5859 6.6875C27.1328 5.3125 24.4375 4.625 21.5 4.625Z" fill="#B67352"/>
</svg>
