<svg width="40" height="42" viewBox="0 0 40 42" fill="none" xmlns="http://www.w3.org/2000/svg">
<path d="M12.199 16.886L0.706259 5.39326C0.235419 4.92242 0 4.32317 0 3.59551C0 2.86784 0.235419 2.26859 0.706259 1.79775C1.1771 1.32691 1.77635 1.09149 2.50401 1.09149C3.23167 1.09149 3.83092 1.32691 4.30176 1.79775L15.7945 13.2905L12.199 16.886ZM27.1589 41.0915C26.4312 41.0915 25.8217 40.8449 25.3303 40.3518C24.8372 39.8605 24.5907 39.2509 24.5907 38.5233C24.5907 37.7956 24.8372 37.1861 25.3303 36.6947C25.8217 36.2016 26.4312 35.9551 27.1589 35.9551H31.2681L23.0498 27.7368L26.7095 24.077L34.8636 32.2311V28.2504C34.8636 27.5227 35.1101 26.9124 35.6032 26.4193C36.0946 25.9279 36.7041 25.6822 37.4318 25.6822C38.1594 25.6822 38.769 25.9279 39.2604 26.4193C39.7534 26.9124 40 27.5227 40 28.2504V38.5233C40 39.2509 39.7534 39.8605 39.2604 40.3518C38.769 40.8449 38.1594 41.0915 37.4318 41.0915H27.1589ZM0.706259 39.2937C0.235419 38.8229 0 38.2237 0 37.496C0 36.7683 0.235419 36.1691 0.706259 35.6982L31.2681 5.13644H27.1589C26.4312 5.13644 25.8217 4.89074 25.3303 4.39936C24.8372 3.90626 24.5907 3.29588 24.5907 2.56822C24.5907 1.84056 24.8372 1.23018 25.3303 0.737079C25.8217 0.245693 26.4312 0 27.1589 0H37.4318C38.1594 0 38.769 0.245693 39.2604 0.737079C39.7534 1.23018 40 1.84056 40 2.56822V12.8411C40 13.5688 39.7534 14.1783 39.2604 14.6697C38.769 15.1628 38.1594 15.4093 37.4318 15.4093C36.7041 15.4093 36.0946 15.1628 35.6032 14.6697C35.1101 14.1783 34.8636 13.5688 34.8636 12.8411V8.73194L4.30176 39.2937C3.83092 39.7646 3.23167 40 2.50401 40C1.77635 40 1.1771 39.7646 0.706259 39.2937Z" fill="#B67352"/>
</svg>
