<svg width="50" height="55" viewBox="0 0 50 55" fill="none" xmlns="http://www.w3.org/2000/svg">
<path d="M6.25 54.6875C4.53125 54.6875 3.06042 54.076 1.8375 52.8531C0.612499 51.6281 0 50.1562 0 48.4375V20.3125C0 19.3229 0.221874 18.3854 0.665624 17.5C1.10729 16.6146 1.71875 15.8854 2.5 15.3125L21.25 1.25C21.8229 0.833334 22.4219 0.520833 23.0469 0.3125C23.6719 0.104166 24.3229 0 25 0C25.6771 0 26.3281 0.104166 26.9531 0.3125C27.5781 0.520833 28.1771 0.833334 28.75 1.25L47.5 15.3125C48.2813 15.8854 48.8937 16.6146 49.3375 17.5C49.7792 18.3854 50 19.3229 50 20.3125V48.4375C50 50.1562 49.3885 51.6281 48.1656 52.8531C46.9406 54.076 45.4688 54.6875 43.75 54.6875H31.25V32.8125H18.75V54.6875H6.25Z" fill="#8C4928"/>
</svg>
