<svg width="58" height="39" viewBox="0 0 58 39" fill="none" xmlns="http://www.w3.org/2000/svg">
<path d="M51.1482 38.7867H6.91535C3.09788 38.7824 0.00430828 35.6889 0 31.8718V31.8714C0.00566878 29.1178 1.60064 26.7381 3.91622 25.6003L3.95738 25.582L4.00534 25.5594L29.0242 14.2347L54.038 25.592C56.3996 26.7326 58 29.1091 58 31.8594C58 35.6573 54.9484 38.7425 51.1633 38.7967H51.1582L51.1482 38.7867ZM6.11775 30.1451C5.47933 30.4675 5.0489 31.1178 5.04771 31.8687V31.8688C5.04771 32.9008 5.88357 33.7375 6.91524 33.739H51.1153C52.131 33.7165 52.9462 32.8898 52.9502 31.8718V31.8714C52.95 31.1194 52.5194 30.4679 51.8911 30.1502L51.8801 30.1451L29.0242 19.7772L6.11775 30.1451ZM31.548 17.006H26.5004V16.2487C26.6348 13.3229 28.1566 10.7789 30.4189 9.24494L30.4502 9.22487C31.0395 8.80357 31.4191 8.12156 31.4191 7.35088C31.4191 6.08244 30.3908 5.05418 29.1224 5.05418C27.854 5.05418 26.8257 6.08249 26.8257 7.35088C26.8257 7.36279 26.8258 7.37486 26.826 7.38677V7.38507L21.7783 7.46074C21.7778 7.42617 21.7774 7.38524 21.7774 7.34431C21.7774 3.28818 25.0656 0 29.1218 0C33.178 0 36.4662 3.28807 36.4662 7.34419C36.4662 9.83143 35.2298 12.0298 33.3382 13.3584L33.2694 13.4044C32.2813 14.0687 31.6213 15.1554 31.5486 16.3997L31.548 16.4102V17.006Z" fill="#B67352"/>
</svg>
